<?xml version="1.0" encoding="utf-8"?>
<!-- Generator: Adobe Illustrator 26.5.0, SVG Export Plug-In . SVG Version: 6.00 Build 0)  -->
<svg version="1.0" id="svg5" xmlns:svg="http://www.w3.org/2000/svg"
	 xmlns="http://www.w3.org/2000/svg" xmlns:xlink="http://www.w3.org/1999/xlink" x="0px" y="0px" viewBox="0 0 2309.76 1595.97"
	 style="enable-background:new 0 0 2309.76 1595.97;" xml:space="preserve">
<style type="text/css">
	.st0{fill-rule:evenodd;clip-rule:evenodd;fill:url(#polygon5_00000052802886200233227550000003666558447288936886_);}
	.st1{fill-rule:evenodd;clip-rule:evenodd;fill:url(#polygon7_00000181770045116130531530000018250918397572226987_);}
	.st2{fill-rule:evenodd;clip-rule:evenodd;fill:url(#polygon9_00000070101779056450923580000012727440544078357689_);}
</style>
<g id="layer1" transform="translate(-326.44138,39.376876)">
	
		<linearGradient id="polygon5_00000121264022937452362700000000011851134961897630_" gradientUnits="userSpaceOnUse" x1="854.8231" y1="1081.1108" x2="854.8231" y2="954.5239" gradientTransform="matrix(2.6093 0 0 -2.6093 -1425.0848 3414.3931)">
		<stop  offset="0" style="stop-color:#13007C"/>
		<stop  offset="1" style="stop-color:#1393DD"/>
	</linearGradient>
	
		<polygon id="polygon5" style="fill-rule:evenodd;clip-rule:evenodd;fill:url(#polygon5_00000121264022937452362700000000011851134961897630_);" points="
		500.53,745.59 500.53,927.85 524.39,927.85 524.39,769.46 1110.27,769.46 1110.27,589.37 500.53,589.37 500.53,613.24 
		1088.57,613.24 1088.57,745.59 	"/>
	
		<linearGradient id="polygon7_00000057867221069282716970000011509431053292973454_" gradientUnits="userSpaceOnUse" x1="1372.4916" y1="1081.1108" x2="1372.4916" y2="954.5239" gradientTransform="matrix(2.6093 0 0 -2.6093 -1425.0848 3414.3931)">
		<stop  offset="0" style="stop-color:#13007C"/>
		<stop  offset="1" style="stop-color:#1393DD"/>
	</linearGradient>
	
		<polygon id="polygon7" style="fill-rule:evenodd;clip-rule:evenodd;fill:url(#polygon7_00000057867221069282716970000011509431053292973454_);" points="
		2438.25,613.24 2438.25,745.59 1850.2,745.59 1850.2,927.85 2462.11,927.85 2462.11,904.01 1876.25,904.01 1876.25,769.46 
		2462.11,769.46 2462.11,589.37 1850.2,589.37 1850.2,613.24 	"/>
	
		<linearGradient id="polygon9_00000126317796263929736960000004795077010986966955_" gradientUnits="userSpaceOnUse" x1="1095.9856" y1="1081.1108" x2="1095.9856" y2="954.5239" gradientTransform="matrix(2.6093 0 0 -2.6093 -1425.0848 3414.3931)">
		<stop  offset="0" style="stop-color:#13007C"/>
		<stop  offset="1" style="stop-color:#1393DD"/>
	</linearGradient>
	
		<polygon id="polygon9" style="fill-rule:evenodd;clip-rule:evenodd;fill:url(#polygon9_00000126317796263929736960000004795077010986966955_);" points="
		1759.06,613.24 1759.06,589.37 1422.74,589.37 1422.74,904.01 1110.27,904.01 1110.27,927.85 1448.77,927.85 1448.77,613.24 	"/>
</g>
</svg>
